# xmcd CD database file
#
# Track frame offsets:
#	150
#	68127
#	119142
#	163832
#	212942
#
# Disc length: 3408 seconds
#
# Revision: 0
# Processed by: cddbd v1.5.2PL0 Copyright (c) Steve Scherf et al.
# Submitted via: CDex 1.70beta2
#
DISCID=4e0d4e05
DTITLE=Tommy Kotter Unit - Joy CD2
DYEAR=2004
DGENRE=Jazz
TTITLE0=Psalm
TTITLE1=Assiett
TTITLE2=Weifang
TTITLE3=Step Out
TTITLE4=Chaognatcha
EXTD=YEAR: 2004
EXTT0=
EXTT1=
EXTT2=
EXTT3=
EXTT4=
PLAYORDER=
